<svg xmlns="http://www.w3.org/2000/svg" viewBox="0 0 109 28.75"><defs><style>.cls-1{fill:#2e4052;}</style></defs><g id="레이어_2" data-name="레이어 2"><g id="레이어_1-2" data-name="레이어 1"><path class="cls-1" d="M12.5,3.75a12,12,0,0,1,4.8,1,13.09,13.09,0,0,1,4,2.65,12.33,12.33,0,0,1,2.73,4,12.1,12.1,0,0,1,1,4.9H22.5a9.54,9.54,0,0,0-.8-3.87,10.14,10.14,0,0,0-5.32-5.33,9.81,9.81,0,0,0-7.76,0A10.14,10.14,0,0,0,3.3,12.38a9.54,9.54,0,0,0-.8,3.87v12.5H0V16.25a12.43,12.43,0,0,1,1-4.9,12.26,12.26,0,0,1,2.64-4,12.46,12.46,0,0,1,4-2.65A12.31,12.31,0,0,1,12.5,3.75Z"/><path class="cls-1" d="M40.5,26.25a9.69,9.69,0,0,0,5.65-1.7A10,10,0,0,0,49.75,20H52.5a12.71,12.71,0,0,1-1.83,3.5,12.37,12.37,0,0,1-2.75,2.75,13.52,13.52,0,0,1-3.47,1.83,12,12,0,0,1-4,.67,12.31,12.31,0,0,1-4.92-1,12.46,12.46,0,0,1-4-2.65A12.52,12.52,0,0,1,28,16.25a12.43,12.43,0,0,1,1-4.9,12.26,12.26,0,0,1,2.64-4,12.46,12.46,0,0,1,4-2.65A12.49,12.49,0,0,1,53,16.25V17.5H30.5A10.79,10.79,0,0,0,31.67,21a9.8,9.8,0,0,0,2.23,2.75,11.18,11.18,0,0,0,3,1.83A9.7,9.7,0,0,0,40.5,26.25Zm0-20a9.7,9.7,0,0,0-3.58.67,11.18,11.18,0,0,0-3,1.83,9.75,9.75,0,0,0-2.23,2.77A11.18,11.18,0,0,0,30.5,15h20a11.18,11.18,0,0,0-1.17-3.48A9.75,9.75,0,0,0,47.1,8.75a11,11,0,0,0-3.05-1.83A9.73,9.73,0,0,0,40.5,6.25Z"/><path class="cls-1" d="M81,16.25a12,12,0,0,1-1,4.92,12.35,12.35,0,0,1-2.73,3.95,13.09,13.09,0,0,1-4,2.65,12,12,0,0,1-4.8,1,12.4,12.4,0,0,1-4.93-1,12.31,12.31,0,0,1-6.6-6.6,12.31,12.31,0,0,1-1-4.92V0h2.5V8.75h6.75v2.5H58.5v5a9.54,9.54,0,0,0,.8,3.87,10.14,10.14,0,0,0,5.32,5.33,9.78,9.78,0,0,0,7.75,0,10.12,10.12,0,0,0,5.33-5.33,9.54,9.54,0,0,0,.8-3.87Z"/><path class="cls-1" d="M96.5,3.75a12,12,0,0,1,4.8,1,13.09,13.09,0,0,1,4,2.65,12.33,12.33,0,0,1,2.73,4,12.1,12.1,0,0,1,1,4.9,12,12,0,0,1-1,4.92,12.35,12.35,0,0,1-2.73,3.95,13.09,13.09,0,0,1-4,2.65,12,12,0,0,1-4.8,1,12.4,12.4,0,0,1-4.93-1,12.31,12.31,0,0,1-6.6-6.6,12.31,12.31,0,0,1-1-4.92A12.4,12.4,0,0,1,96.5,3.75Zm0,22.5a9.54,9.54,0,0,0,3.87-.8,10.12,10.12,0,0,0,5.33-5.33,9.76,9.76,0,0,0,0-7.74,10.12,10.12,0,0,0-5.33-5.33,9.78,9.78,0,0,0-7.75,0,10.14,10.14,0,0,0-5.32,5.33,9.76,9.76,0,0,0,0,7.74,10.14,10.14,0,0,0,5.32,5.33A9.63,9.63,0,0,0,96.5,26.25Z"/></g></g></svg>